<svg xmlns="http://www.w3.org/2000/svg" width="23" height="24" viewBox="0 0 23 24"><g><g><path fill="#fff" d="M22.147 18.285a11.671 11.671 0 0 1-2.642 4.063 12.1 12.1 0 0 1-1.058.93l-.131.103-.49.007c-4.32 0-8.795-1.997-12.277-5.478C1.893 14.254-.102 9.66.004 5.238l.004-.166.102-.13c.294-.376.606-.731.929-1.056a11.723 11.723 0 0 1 4.067-2.648c.137-.053.296-.08.472-.08.533 0 1.406.283 1.591.796.542 1.5 1.227 3.465 1.721 5.34.108.399-.042 1.43-.521 1.73L6.6 10.149c-.119.074-.167.207-.186.307-.059.3.052.69.288 1.015a25.477 25.477 0 0 0 2.409 2.822 25.115 25.115 0 0 0 2.807 2.392c.484.355 1.148.389 1.321.109l1.125-1.777c.348-.543 1.421-.55 1.432-.55.106 0 .197.01.278.028 2.292.512 3.654.95 5.396 1.74zm-9.598-16.63a10.242 10.242 0 0 0-1.054-.055.5.5 0 0 1 0-1zm9.06 9.057l1.055 1.054a.5.5 0 0 1-1 0c0-.356-.018-.707-.054-1.054zm-9.06-9.058c4.767.494 8.567 4.293 9.06 9.058l-3.482-3.481a7.996 7.996 0 0 1 1.41 4.544.5.5 0 1 1-1 0c0-3.882-3.16-7.041-7.043-7.041l-.501-.5a.5.5 0 0 1 .5-.501 8 8 0 0 1 4.546 1.41zm-1.556 5.88c0-.276.224-.5.5-.5a4.748 4.748 0 0 1 4.744 4.74.5.5 0 1 1-1.002 0c0-2.06-1.678-3.738-3.741-3.738z"/></g></g></svg>